<mxfile host="app.diagrams.net" modified="2023-04-29T09:07:27.757Z" agent="Mozilla/5.0 (Windows NT 10.0; Win64; x64) AppleWebKit/537.36 (KHTML, like Gecko) Chrome/112.0.0.0 Safari/537.36" etag="OY2r0K3h96nJJXAPXln9" version="21.2.3" type="device">
  <diagram name="Trang-1" id="swoca87_YwDuFJIXdxOZ">
    <mxGraphModel dx="1290" dy="483" grid="1" gridSize="10" guides="1" tooltips="1" connect="1" arrows="1" fold="1" page="1" pageScale="1" pageWidth="827" pageHeight="1169" math="0" shadow="0">
      <root>
        <mxCell id="0" />
        <mxCell id="1" parent="0" />
        <mxCell id="diEES8ozlOG5CuiaGHBs-37" value="" style="group" vertex="1" connectable="0" parent="1">
          <mxGeometry x="20" y="130" width="830" height="350" as="geometry" />
        </mxCell>
        <mxCell id="diEES8ozlOG5CuiaGHBs-38" value="" style="rounded=0;whiteSpace=wrap;html=1;" vertex="1" parent="diEES8ozlOG5CuiaGHBs-37">
          <mxGeometry x="50" y="-10" width="690" height="360" as="geometry" />
        </mxCell>
        <mxCell id="diEES8ozlOG5CuiaGHBs-14" value="Người dùng" style="shape=umlActor;verticalLabelPosition=bottom;verticalAlign=top;html=1;outlineConnect=0;" vertex="1" parent="diEES8ozlOG5CuiaGHBs-37">
          <mxGeometry y="140" width="30" height="60" as="geometry" />
        </mxCell>
        <mxCell id="diEES8ozlOG5CuiaGHBs-17" value="Chọn Tra Cứu" style="ellipse;whiteSpace=wrap;html=1;" vertex="1" parent="diEES8ozlOG5CuiaGHBs-37">
          <mxGeometry x="90" y="135" width="120" height="50" as="geometry" />
        </mxCell>
        <mxCell id="diEES8ozlOG5CuiaGHBs-20" value="Nhập Thông Tin" style="ellipse;whiteSpace=wrap;html=1;" vertex="1" parent="diEES8ozlOG5CuiaGHBs-37">
          <mxGeometry x="286" y="135" width="120" height="50" as="geometry" />
        </mxCell>
        <mxCell id="diEES8ozlOG5CuiaGHBs-21" value="" style="endArrow=none;html=1;rounded=0;exitX=1;exitY=0.3333333333333333;exitDx=0;exitDy=0;exitPerimeter=0;entryX=0;entryY=0.5;entryDx=0;entryDy=0;" edge="1" parent="diEES8ozlOG5CuiaGHBs-37" source="diEES8ozlOG5CuiaGHBs-14" target="diEES8ozlOG5CuiaGHBs-17">
          <mxGeometry width="50" height="50" relative="1" as="geometry">
            <mxPoint x="350" y="200" as="sourcePoint" />
            <mxPoint x="400" y="150" as="targetPoint" />
          </mxGeometry>
        </mxCell>
        <mxCell id="diEES8ozlOG5CuiaGHBs-22" value="&amp;lt;&amp;lt;include&amp;gt;&amp;gt;" style="html=1;verticalAlign=bottom;endArrow=block;edgeStyle=elbowEdgeStyle;elbow=vertical;curved=0;rounded=0;entryX=0;entryY=0.5;entryDx=0;entryDy=0;" edge="1" parent="diEES8ozlOG5CuiaGHBs-37" target="diEES8ozlOG5CuiaGHBs-20">
          <mxGeometry width="80" relative="1" as="geometry">
            <mxPoint x="210" y="159.5" as="sourcePoint" />
            <mxPoint x="280" y="160" as="targetPoint" />
          </mxGeometry>
        </mxCell>
        <mxCell id="diEES8ozlOG5CuiaGHBs-23" value="Hệ Thống" style="shape=umlActor;verticalLabelPosition=bottom;verticalAlign=top;html=1;outlineConnect=0;" vertex="1" parent="diEES8ozlOG5CuiaGHBs-37">
          <mxGeometry x="760" y="130" width="30" height="60" as="geometry" />
        </mxCell>
        <mxCell id="diEES8ozlOG5CuiaGHBs-25" value="Tìm Kiếm" style="ellipse;whiteSpace=wrap;html=1;" vertex="1" parent="diEES8ozlOG5CuiaGHBs-37">
          <mxGeometry x="460" y="135" width="100" height="50" as="geometry" />
        </mxCell>
        <mxCell id="diEES8ozlOG5CuiaGHBs-28" value="Nhập Tuyến Đường" style="ellipse;whiteSpace=wrap;html=1;" vertex="1" parent="diEES8ozlOG5CuiaGHBs-37">
          <mxGeometry x="210" y="245" width="120" height="50" as="geometry" />
        </mxCell>
        <mxCell id="diEES8ozlOG5CuiaGHBs-29" value="Nhập Thời Gian &lt;br&gt;Chờ" style="ellipse;whiteSpace=wrap;html=1;" vertex="1" parent="diEES8ozlOG5CuiaGHBs-37">
          <mxGeometry x="366" y="245" width="120" height="50" as="geometry" />
        </mxCell>
        <mxCell id="diEES8ozlOG5CuiaGHBs-30" value="&amp;lt;&amp;lt;extend&amp;gt;&amp;gt;" style="html=1;verticalAlign=bottom;endArrow=block;edgeStyle=elbowEdgeStyle;elbow=vertical;curved=0;rounded=0;exitX=0.5;exitY=0;exitDx=0;exitDy=0;entryX=0.5;entryY=1;entryDx=0;entryDy=0;" edge="1" parent="diEES8ozlOG5CuiaGHBs-37" source="diEES8ozlOG5CuiaGHBs-28" target="diEES8ozlOG5CuiaGHBs-20">
          <mxGeometry width="80" relative="1" as="geometry">
            <mxPoint x="286" y="135" as="sourcePoint" />
            <mxPoint x="366" y="135" as="targetPoint" />
            <mxPoint as="offset" />
          </mxGeometry>
        </mxCell>
        <mxCell id="diEES8ozlOG5CuiaGHBs-31" value="&amp;lt;&amp;lt;extend&amp;gt;&amp;gt;" style="html=1;verticalAlign=bottom;endArrow=block;edgeStyle=elbowEdgeStyle;elbow=vertical;curved=0;rounded=0;exitX=0.5;exitY=0;exitDx=0;exitDy=0;entryX=0.5;entryY=1;entryDx=0;entryDy=0;" edge="1" parent="diEES8ozlOG5CuiaGHBs-37" source="diEES8ozlOG5CuiaGHBs-29">
          <mxGeometry x="-0.0323" y="-10" width="80" relative="1" as="geometry">
            <mxPoint x="286" y="245" as="sourcePoint" />
            <mxPoint x="362" y="185" as="targetPoint" />
            <mxPoint as="offset" />
          </mxGeometry>
        </mxCell>
        <mxCell id="diEES8ozlOG5CuiaGHBs-32" value="Hiển Thị Trên Màn Hình" style="ellipse;whiteSpace=wrap;html=1;" vertex="1" parent="diEES8ozlOG5CuiaGHBs-37">
          <mxGeometry x="620" y="135" width="110" height="50" as="geometry" />
        </mxCell>
        <mxCell id="diEES8ozlOG5CuiaGHBs-33" value="&amp;lt;&amp;lt;include&amp;gt;&amp;gt;" style="html=1;verticalAlign=bottom;endArrow=block;edgeStyle=elbowEdgeStyle;elbow=vertical;curved=0;rounded=0;" edge="1" parent="diEES8ozlOG5CuiaGHBs-37">
          <mxGeometry width="80" relative="1" as="geometry">
            <mxPoint x="406" y="159.5" as="sourcePoint" />
            <mxPoint x="460" y="160" as="targetPoint" />
          </mxGeometry>
        </mxCell>
        <mxCell id="diEES8ozlOG5CuiaGHBs-35" value="&amp;lt;&amp;lt;include&amp;gt;&amp;gt;" style="html=1;verticalAlign=bottom;endArrow=block;edgeStyle=elbowEdgeStyle;elbow=vertical;curved=0;rounded=0;" edge="1" parent="diEES8ozlOG5CuiaGHBs-37">
          <mxGeometry width="80" relative="1" as="geometry">
            <mxPoint x="560" y="159.5" as="sourcePoint" />
            <mxPoint x="620" y="160" as="targetPoint" />
          </mxGeometry>
        </mxCell>
        <mxCell id="diEES8ozlOG5CuiaGHBs-16" value="Tìm Kiếm Thông Tin Tuyến Đường Và Thời Gian Chờ" style="text;align=center;fontStyle=1;verticalAlign=middle;spacingLeft=3;spacingRight=3;strokeColor=none;rotatable=0;points=[[0,0.5],[1,0.5]];portConstraint=eastwest;html=1;" vertex="1" parent="diEES8ozlOG5CuiaGHBs-37">
          <mxGeometry x="334" width="80" height="26" as="geometry" />
        </mxCell>
        <mxCell id="diEES8ozlOG5CuiaGHBs-39" value="" style="endArrow=none;html=1;rounded=0;fontFamily=Helvetica;fontSize=12;fontColor=default;exitX=1;exitY=0.5;exitDx=0;exitDy=0;" edge="1" parent="diEES8ozlOG5CuiaGHBs-37" source="diEES8ozlOG5CuiaGHBs-32">
          <mxGeometry width="50" height="50" relative="1" as="geometry">
            <mxPoint x="710" y="210" as="sourcePoint" />
            <mxPoint x="760" y="160" as="targetPoint" />
          </mxGeometry>
        </mxCell>
      </root>
    </mxGraphModel>
  </diagram>
</mxfile>
